<?xml version='1.0' encoding='UTF-8'?>
<svg width="41mm" height="41mm" version="1.1" viewBox="0 0 41 41" xmlns="http://www.w3.org/2000/svg"><path d="M2,2H3V3H2zM3,2H4V3H3zM4,2H5V3H4zM5,2H6V3H5zM6,2H7V3H6zM7,2H8V3H7zM8,2H9V3H8zM11,2H12V3H11zM13,2H14V3H13zM14,2H15V3H14zM17,2H18V3H17zM18,2H19V3H18zM22,2H23V3H22zM26,2H27V3H26zM30,2H31V3H30zM32,2H33V3H32zM33,2H34V3H33zM34,2H35V3H34zM35,2H36V3H35zM36,2H37V3H36zM37,2H38V3H37zM38,2H39V3H38zM2,3H3V4H2zM8,3H9V4H8zM10,3H11V4H10zM15,3H16V4H15zM17,3H18V4H17zM23,3H24V4H23zM24,3H25V4H24zM26,3H27V4H26zM27,3H28V4H27zM28,3H29V4H28zM30,3H31V4H30zM32,3H33V4H32zM38,3H39V4H38zM2,4H3V5H2zM4,4H5V5H4zM5,4H6V5H5zM6,4H7V5H6zM8,4H9V5H8zM10,4H11V5H10zM11,4H12V5H11zM12,4H13V5H12zM14,4H15V5H14zM16,4H17V5H16zM17,4H18V5H17zM18,4H19V5H18zM20,4H21V5H20zM23,4H24V5H23zM24,4H25V5H24zM25,4H26V5H25zM26,4H27V5H26zM28,4H29V5H28zM29,4H30V5H29zM32,4H33V5H32zM34,4H35V5H34zM35,4H36V5H35zM36,4H37V5H36zM38,4H39V5H38zM2,5H3V6H2zM4,5H5V6H4zM5,5H6V6H5zM6,5H7V6H6zM8,5H9V6H8zM10,5H11V6H10zM13,5H14V6H13zM16,5H17V6H16zM19,5H20V6H19zM22,5H23V6H22zM23,5H24V6H23zM25,5H26V6H25zM26,5H27V6H26zM27,5H28V6H27zM29,5H30V6H29zM30,5H31V6H30zM32,5H33V6H32zM34,5H35V6H34zM35,5H36V6H35zM36,5H37V6H36zM38,5H39V6H38zM2,6H3V7H2zM4,6H5V7H4zM5,6H6V7H5zM6,6H7V7H6zM8,6H9V7H8zM12,6H13V7H12zM16,6H17V7H16zM19,6H20V7H19zM20,6H21V7H20zM21,6H22V7H21zM22,6H23V7H22zM23,6H24V7H23zM25,6H26V7H25zM26,6H27V7H26zM30,6H31V7H30zM32,6H33V7H32zM34,6H35V7H34zM35,6H36V7H35zM36,6H37V7H36zM38,6H39V7H38zM2,7H3V8H2zM8,7H9V8H8zM13,7H14V8H13zM14,7H15V8H14zM16,7H17V8H16zM22,7H23V8H22zM24,7H25V8H24zM27,7H28V8H27zM30,7H31V8H30zM32,7H33V8H32zM38,7H39V8H38zM2,8H3V9H2zM3,8H4V9H3zM4,8H5V9H4zM5,8H6V9H5zM6,8H7V9H6zM7,8H8V9H7zM8,8H9V9H8zM10,8H11V9H10zM12,8H13V9H12zM14,8H15V9H14zM16,8H17V9H16zM18,8H19V9H18zM20,8H21V9H20zM22,8H23V9H22zM24,8H25V9H24zM26,8H27V9H26zM28,8H29V9H28zM30,8H31V9H30zM32,8H33V9H32zM33,8H34V9H33zM34,8H35V9H34zM35,8H36V9H35zM36,8H37V9H36zM37,8H38V9H37zM38,8H39V9H38zM10,9H11V10H10zM12,9H13V10H12zM15,9H16V10H15zM16,9H17V10H16zM17,9H18V10H17zM21,9H22V10H21zM22,9H23V10H22zM28,9H29V10H28zM29,9H30V10H29zM30,9H31V10H30zM2,10H3V11H2zM8,10H9V11H8zM10,10H11V11H10zM11,10H12V11H11zM12,10H13V11H12zM13,10H14V11H13zM16,10H17V11H16zM17,10H18V11H17zM19,10H20V11H19zM21,10H22V11H21zM22,10H23V11H22zM24,10H25V11H24zM25,10H26V11H25zM26,10H27V11H26zM28,10H29V11H28zM29,10H30V11H29zM30,10H31V11H30zM31,10H32V11H31zM32,10H33V11H32zM35,10H36V11H35zM36,10H37V11H36zM37,10H38V11H37zM2,11H3V12H2zM5,11H6V12H5zM6,11H7V12H6zM11,11H12V12H11zM14,11H15V12H14zM15,11H16V12H15zM18,11H19V12H18zM21,11H22V12H21zM24,11H25V12H24zM25,11H26V12H25zM27,11H28V12H27zM31,11H32V12H31zM32,11H33V12H32zM33,11H34V12H33zM34,11H35V12H34zM35,11H36V12H35zM36,11H37V12H36zM37,11H38V12H37zM2,12H3V13H2zM3,12H4V13H3zM4,12H5V13H4zM6,12H7V13H6zM8,12H9V13H8zM9,12H10V13H9zM10,12H11V13H10zM14,12H15V13H14zM15,12H16V13H15zM17,12H18V13H17zM18,12H19V13H18zM22,12H23V13H22zM23,12H24V13H23zM24,12H25V13H24zM26,12H27V13H26zM27,12H28V13H27zM28,12H29V13H28zM29,12H30V13H29zM30,12H31V13H30zM31,12H32V13H31zM32,12H33V13H32zM35,12H36V13H35zM37,12H38V13H37zM38,12H39V13H38zM3,13H4V14H3zM5,13H6V14H5zM6,13H7V14H6zM7,13H8V14H7zM10,13H11V14H10zM17,13H18V14H17zM18,13H19V14H18zM20,13H21V14H20zM21,13H22V14H21zM25,13H26V14H25zM26,13H27V14H26zM28,13H29V14H28zM32,13H33V14H32zM34,13H35V14H34zM35,13H36V14H35zM38,13H39V14H38zM3,14H4V15H3zM4,14H5V15H4zM6,14H7V15H6zM7,14H8V15H7zM8,14H9V15H8zM11,14H12V15H11zM13,14H14V15H13zM14,14H15V15H14zM15,14H16V15H15zM16,14H17V15H16zM17,14H18V15H17zM18,14H19V15H18zM21,14H22V15H21zM22,14H23V15H22zM26,14H27V15H26zM30,14H31V15H30zM32,14H33V15H32zM33,14H34V15H33zM35,14H36V15H35zM38,14H39V15H38zM2,15H3V16H2zM3,15H4V16H3zM6,15H7V16H6zM9,15H10V16H9zM10,15H11V16H10zM11,15H12V16H11zM14,15H15V16H14zM16,15H17V16H16zM18,15H19V16H18zM20,15H21V16H20zM21,15H22V16H21zM22,15H23V16H22zM24,15H25V16H24zM25,15H26V16H25zM29,15H30V16H29zM30,15H31V16H30zM31,15H32V16H31zM33,15H34V16H33zM35,15H36V16H35zM2,16H3V17H2zM3,16H4V17H3zM4,16H5V17H4zM5,16H6V17H5zM6,16H7V17H6zM7,16H8V17H7zM8,16H9V17H8zM10,16H11V17H10zM14,16H15V17H14zM15,16H16V17H15zM17,16H18V17H17zM18,16H19V17H18zM19,16H20V17H19zM20,16H21V17H20zM27,16H28V17H27zM29,16H30V17H29zM32,16H33V17H32zM33,16H34V17H33zM34,16H35V17H34zM35,16H36V17H35zM37,16H38V17H37zM38,16H39V17H38zM2,17H3V18H2zM3,17H4V18H3zM5,17H6V18H5zM6,17H7V18H6zM11,17H12V18H11zM12,17H13V18H12zM15,17H16V18H15zM18,17H19V18H18zM21,17H22V18H21zM24,17H25V18H24zM25,17H26V18H25zM29,17H30V18H29zM32,17H33V18H32zM33,17H34V18H33zM35,17H36V18H35zM36,17H37V18H36zM2,18H3V19H2zM3,18H4V19H3zM4,18H5V19H4zM5,18H6V19H5zM8,18H9V19H8zM9,18H10V19H9zM11,18H12V19H11zM15,18H16V19H15zM16,18H17V19H16zM19,18H20V19H19zM22,18H23V19H22zM23,18H24V19H23zM24,18H25V19H24zM25,18H26V19H25zM26,18H27V19H26zM27,18H28V19H27zM28,18H29V19H28zM30,18H31V19H30zM31,18H32V19H31zM32,18H33V19H32zM34,18H35V19H34zM36,18H37V19H36zM2,19H3V20H2zM4,19H5V20H4zM5,19H6V20H5zM11,19H12V20H11zM15,19H16V20H15zM16,19H17V20H16zM17,19H18V20H17zM18,19H19V20H18zM20,19H21V20H20zM21,19H22V20H21zM22,19H23V20H22zM25,19H26V20H25zM28,19H29V20H28zM29,19H30V20H29zM33,19H34V20H33zM35,19H36V20H35zM37,19H38V20H37zM2,20H3V21H2zM3,20H4V21H3zM5,20H6V21H5zM7,20H8V21H7zM8,20H9V21H8zM9,20H10V21H9zM10,20H11V21H10zM12,20H13V21H12zM13,20H14V21H13zM16,20H17V21H16zM17,20H18V21H17zM18,20H19V21H18zM19,20H20V21H19zM21,20H22V21H21zM24,20H25V21H24zM25,20H26V21H25zM29,20H30V21H29zM31,20H32V21H31zM32,20H33V21H32zM33,20H34V21H33zM38,20H39V21H38zM3,21H4V22H3zM4,21H5V22H4zM5,21H6V22H5zM6,21H7V22H6zM9,21H10V22H9zM10,21H11V22H10zM13,21H14V22H13zM15,21H16V22H15zM16,21H17V22H16zM17,21H18V22H17zM18,21H19V22H18zM22,21H23V22H22zM26,21H27V22H26zM28,21H29V22H28zM33,21H34V22H33zM35,21H36V22H35zM38,21H39V22H38zM5,22H6V23H5zM7,22H8V23H7zM8,22H9V23H8zM10,22H11V23H10zM11,22H12V23H11zM12,22H13V23H12zM13,22H14V23H13zM14,22H15V23H14zM18,22H19V23H18zM19,22H20V23H19zM24,22H25V23H24zM26,22H27V23H26zM27,22H28V23H27zM28,22H29V23H28zM29,22H30V23H29zM31,22H32V23H31zM32,22H33V23H32zM34,22H35V23H34zM36,22H37V23H36zM2,23H3V24H2zM3,23H4V24H3zM4,23H5V24H4zM9,23H10V24H9zM10,23H11V24H10zM11,23H12V24H11zM13,23H14V24H13zM14,23H15V24H14zM19,23H20V24H19zM21,23H22V24H21zM23,23H24V24H23zM24,23H25V24H24zM25,23H26V24H25zM28,23H29V24H28zM29,23H30V24H29zM30,23H31V24H30zM34,23H35V24H34zM36,23H37V24H36zM38,23H39V24H38zM3,24H4V25H3zM6,24H7V25H6zM8,24H9V25H8zM9,24H10V25H9zM12,24H13V25H12zM14,24H15V25H14zM17,24H18V25H17zM18,24H19V25H18zM20,24H21V25H20zM22,24H23V25H22zM23,24H24V25H23zM28,24H29V25H28zM29,24H30V25H29zM30,24H31V25H30zM31,24H32V25H31zM33,24H34V25H33zM34,24H35V25H34zM35,24H36V25H35zM37,24H38V25H37zM38,24H39V25H38zM3,25H4V26H3zM9,25H10V26H9zM11,25H12V26H11zM14,25H15V26H14zM16,25H17V26H16zM20,25H21V26H20zM21,25H22V26H21zM22,25H23V26H22zM25,25H26V26H25zM26,25H27V26H26zM30,25H31V26H30zM33,25H34V26H33zM34,25H35V26H34zM35,25H36V26H35zM38,25H39V26H38zM3,26H4V27H3zM7,26H8V27H7zM8,26H9V27H8zM9,26H10V27H9zM10,26H11V27H10zM12,26H13V27H12zM14,26H15V27H14zM15,26H16V27H15zM17,26H18V27H17zM18,26H19V27H18zM25,26H26V27H25zM26,26H27V27H26zM29,26H30V27H29zM32,26H33V27H32zM33,26H34V27H33zM37,26H38V27H37zM2,27H3V28H2zM3,27H4V28H3zM5,27H6V28H5zM7,27H8V28H7zM9,27H10V28H9zM10,27H11V28H10zM16,27H17V28H16zM17,27H18V28H17zM18,27H19V28H18zM20,27H21V28H20zM21,27H22V28H21zM22,27H23V28H22zM23,27H24V28H23zM25,27H26V28H25zM27,27H28V28H27zM29,27H30V28H29zM31,27H32V28H31zM33,27H34V28H33zM35,27H36V28H35zM2,28H3V29H2zM7,28H8V29H7zM8,28H9V29H8zM11,28H12V29H11zM12,28H13V29H12zM13,28H14V29H13zM15,28H16V29H15zM17,28H18V29H17zM18,28H19V29H18zM19,28H20V29H19zM20,28H21V29H20zM22,28H23V29H22zM23,28H24V29H23zM26,28H27V29H26zM28,28H29V29H28zM29,28H30V29H29zM30,28H31V29H30zM33,28H34V29H33zM34,28H35V29H34zM35,28H36V29H35zM36,28H37V29H36zM37,28H38V29H37zM38,28H39V29H38zM2,29H3V30H2zM4,29H5V30H4zM6,29H7V30H6zM7,29H8V30H7zM9,29H10V30H9zM11,29H12V30H11zM12,29H13V30H12zM13,29H14V30H13zM14,29H15V30H14zM15,29H16V30H15zM18,29H19V30H18zM20,29H21V30H20zM21,29H22V30H21zM25,29H26V30H25zM28,29H29V30H28zM31,29H32V30H31zM32,29H33V30H32zM33,29H34V30H33zM34,29H35V30H34zM35,29H36V30H35zM36,29H37V30H36zM38,29H39V30H38zM2,30H3V31H2zM8,30H9V31H8zM9,30H10V31H9zM11,30H12V31H11zM13,30H14V31H13zM14,30H15V31H14zM16,30H17V31H16zM18,30H19V31H18zM19,30H20V31H19zM21,30H22V31H21zM24,30H25V31H24zM26,30H27V31H26zM27,30H28V31H27zM28,30H29V31H28zM29,30H30V31H29zM30,30H31V31H30zM31,30H32V31H31zM32,30H33V31H32zM33,30H34V31H33zM34,30H35V31H34zM37,30H38V31H37zM38,30H39V31H38zM10,31H11V32H10zM13,31H14V32H13zM14,31H15V32H14zM15,31H16V32H15zM17,31H18V32H17zM21,31H22V32H21zM23,31H24V32H23zM24,31H25V32H24zM25,31H26V32H25zM30,31H31V32H30zM34,31H35V32H34zM2,32H3V33H2zM3,32H4V33H3zM4,32H5V33H4zM5,32H6V33H5zM6,32H7V33H6zM7,32H8V33H7zM8,32H9V33H8zM14,32H15V33H14zM17,32H18V33H17zM19,32H20V33H19zM20,32H21V33H20zM21,32H22V33H21zM23,32H24V33H23zM25,32H26V33H25zM26,32H27V33H26zM27,32H28V33H27zM30,32H31V33H30zM32,32H33V33H32zM34,32H35V33H34zM38,32H39V33H38zM2,33H3V34H2zM8,33H9V34H8zM13,33H14V34H13zM16,33H17V34H16zM17,33H18V34H17zM18,33H19V34H18zM22,33H23V34H22zM25,33H26V34H25zM28,33H29V34H28zM29,33H30V34H29zM30,33H31V34H30zM34,33H35V34H34zM38,33H39V34H38zM2,34H3V35H2zM4,34H5V35H4zM5,34H6V35H5zM6,34H7V35H6zM8,34H9V35H8zM12,34H13V35H12zM13,34H14V35H13zM19,34H20V35H19zM22,34H23V35H22zM23,34H24V35H23zM24,34H25V35H24zM25,34H26V35H25zM26,34H27V35H26zM27,34H28V35H27zM29,34H30V35H29zM30,34H31V35H30zM31,34H32V35H31zM32,34H33V35H32zM33,34H34V35H33zM34,34H35V35H34zM36,34H37V35H36zM37,34H38V35H37zM2,35H3V36H2zM4,35H5V36H4zM5,35H6V36H5zM6,35H7V36H6zM8,35H9V36H8zM11,35H12V36H11zM13,35H14V36H13zM15,35H16V36H15zM16,35H17V36H16zM17,35H18V36H17zM21,35H22V36H21zM22,35H23V36H22zM24,35H25V36H24zM25,35H26V36H25zM31,35H32V36H31zM32,35H33V36H32zM35,35H36V36H35zM36,35H37V36H36zM37,35H38V36H37zM38,35H39V36H38zM2,36H3V37H2zM4,36H5V37H4zM5,36H6V37H5zM6,36H7V37H6zM8,36H9V37H8zM11,36H12V37H11zM12,36H13V37H12zM14,36H15V37H14zM15,36H16V37H15zM16,36H17V37H16zM17,36H18V37H17zM19,36H20V37H19zM20,36H21V37H20zM22,36H23V37H22zM24,36H25V37H24zM26,36H27V37H26zM28,36H29V37H28zM31,36H32V37H31zM36,36H37V37H36zM37,36H38V37H37zM38,36H39V37H38zM2,37H3V38H2zM8,37H9V38H8zM11,37H12V38H11zM13,37H14V38H13zM16,37H17V38H16zM17,37H18V38H17zM28,37H29V38H28zM29,37H30V38H29zM30,37H31V38H30zM32,37H33V38H32zM34,37H35V38H34zM35,37H36V38H35zM38,37H39V38H38zM2,38H3V39H2zM3,38H4V39H3zM4,38H5V39H4zM5,38H6V39H5zM6,38H7V39H6zM7,38H8V39H7zM8,38H9V39H8zM10,38H11V39H10zM15,38H16V39H15zM16,38H17V39H16zM17,38H18V39H17zM18,38H19V39H18zM20,38H21V39H20zM21,38H22V39H21zM22,38H23V39H22zM25,38H26V39H25zM26,38H27V39H26zM28,38H29V39H28zM29,38H30V39H29zM30,38H31V39H30zM33,38H34V39H33zM38,38H39V39H38z" id="qr-path" fill="#000000" fill-opacity="1" fill-rule="nonzero" stroke="none"/></svg>